<mxfile host="app.diagrams.net" agent="Mozilla/5.0 (Windows NT 10.0; Win64; x64) AppleWebKit/537.36 (KHTML, like Gecko) Chrome/130.0.0.0 Safari/537.36" version="24.8.9">
  <diagram name="Page-1" id="Ltw2sKbZG8qRHOZKxxx9">
    <mxGraphModel dx="803" dy="145" grid="1" gridSize="10" guides="1" tooltips="1" connect="1" arrows="1" fold="1" page="1" pageScale="1" pageWidth="300" pageHeight="300" math="0" shadow="0">
      <root>
        <mxCell id="0" />
        <mxCell id="1" parent="0" />
        <mxCell id="39lnbvpjm0g7ytKZNYeY-1" value="&lt;font&gt;Process&lt;/font&gt;&lt;div&gt;&lt;font&gt;P1 = 10 KB&lt;/font&gt;&lt;/div&gt;" style="ellipse;shape=cloud;whiteSpace=wrap;html=1;fillColor=#8ad241;fontColor=#ffffff;strokeColor=#2D7600;" vertex="1" parent="1">
          <mxGeometry y="310" width="120" height="80" as="geometry" />
        </mxCell>
        <mxCell id="39lnbvpjm0g7ytKZNYeY-15" value="" style="shape=table;startSize=0;container=1;collapsible=0;childLayout=tableLayout;fontSize=12;strokeWidth=2;perimeterSpacing=2;rounded=0;shadow=0;swimlaneLine=1;gradientColor=none;swimlaneFillColor=none;" vertex="1" parent="1">
          <mxGeometry x="150" y="370" width="130" height="200" as="geometry" />
        </mxCell>
        <mxCell id="39lnbvpjm0g7ytKZNYeY-36" style="shape=tableRow;horizontal=0;startSize=0;swimlaneHead=0;swimlaneBody=0;strokeColor=inherit;top=0;left=0;bottom=0;right=0;collapsible=0;dropTarget=0;fillColor=none;points=[[0,0.5],[1,0.5]];portConstraint=eastwest;fontSize=16;" vertex="1" parent="39lnbvpjm0g7ytKZNYeY-15">
          <mxGeometry width="130" height="22" as="geometry" />
        </mxCell>
        <mxCell id="39lnbvpjm0g7ytKZNYeY-37" value="OS" style="shape=partialRectangle;html=1;whiteSpace=wrap;connectable=0;strokeColor=#A50040;overflow=hidden;fillColor=#d80073;top=0;left=0;bottom=0;right=0;pointerEvents=1;fontSize=16;fontColor=#ffffff;strokeWidth=2;" vertex="1" parent="39lnbvpjm0g7ytKZNYeY-36">
          <mxGeometry width="130" height="22" as="geometry">
            <mxRectangle width="130" height="22" as="alternateBounds" />
          </mxGeometry>
        </mxCell>
        <mxCell id="39lnbvpjm0g7ytKZNYeY-32" style="shape=tableRow;horizontal=0;startSize=0;swimlaneHead=0;swimlaneBody=0;strokeColor=inherit;top=0;left=0;bottom=0;right=0;collapsible=0;dropTarget=0;fillColor=none;points=[[0,0.5],[1,0.5]];portConstraint=eastwest;fontSize=16;" vertex="1" parent="39lnbvpjm0g7ytKZNYeY-15">
          <mxGeometry y="22" width="130" height="22" as="geometry" />
        </mxCell>
        <mxCell id="39lnbvpjm0g7ytKZNYeY-33" value="&lt;font style=&quot;font-size: 12px;&quot;&gt;4KB&lt;/font&gt;" style="shape=partialRectangle;html=1;whiteSpace=wrap;connectable=0;strokeColor=#2D7600;overflow=hidden;fillColor=#60a917;top=0;left=0;bottom=0;right=0;pointerEvents=1;fontSize=16;fontColor=#ffffff;" vertex="1" parent="39lnbvpjm0g7ytKZNYeY-32">
          <mxGeometry width="130" height="22" as="geometry">
            <mxRectangle width="130" height="22" as="alternateBounds" />
          </mxGeometry>
        </mxCell>
        <mxCell id="39lnbvpjm0g7ytKZNYeY-28" style="shape=tableRow;horizontal=0;startSize=0;swimlaneHead=0;swimlaneBody=0;strokeColor=inherit;top=0;left=0;bottom=0;right=0;collapsible=0;dropTarget=0;fillColor=none;points=[[0,0.5],[1,0.5]];portConstraint=eastwest;fontSize=16;" vertex="1" parent="39lnbvpjm0g7ytKZNYeY-15">
          <mxGeometry y="44" width="130" height="23" as="geometry" />
        </mxCell>
        <mxCell id="39lnbvpjm0g7ytKZNYeY-29" value="&lt;font style=&quot;font-size: 12px;&quot;&gt;20KB&lt;/font&gt;" style="shape=partialRectangle;html=1;whiteSpace=wrap;connectable=0;strokeColor=#B09500;overflow=hidden;fillColor=#e3c800;top=0;left=0;bottom=0;right=0;pointerEvents=1;fontSize=16;fontColor=#000000;" vertex="1" parent="39lnbvpjm0g7ytKZNYeY-28">
          <mxGeometry width="130" height="23" as="geometry">
            <mxRectangle width="130" height="23" as="alternateBounds" />
          </mxGeometry>
        </mxCell>
        <mxCell id="39lnbvpjm0g7ytKZNYeY-16" value="" style="shape=tableRow;horizontal=0;startSize=0;swimlaneHead=0;swimlaneBody=0;strokeColor=inherit;top=0;left=0;bottom=0;right=0;collapsible=0;dropTarget=0;fillColor=none;points=[[0,0.5],[1,0.5]];portConstraint=eastwest;fontSize=16;" vertex="1" parent="39lnbvpjm0g7ytKZNYeY-15">
          <mxGeometry y="67" width="130" height="22" as="geometry" />
        </mxCell>
        <mxCell id="39lnbvpjm0g7ytKZNYeY-17" value="&lt;font style=&quot;font-size: 12px;&quot;&gt;1KB&lt;/font&gt;" style="shape=partialRectangle;html=1;whiteSpace=wrap;connectable=0;strokeColor=#10739e;overflow=hidden;fillColor=#b1ddf0;top=0;left=0;bottom=0;right=0;pointerEvents=1;fontSize=16;" vertex="1" parent="39lnbvpjm0g7ytKZNYeY-16">
          <mxGeometry width="130" height="22" as="geometry">
            <mxRectangle width="130" height="22" as="alternateBounds" />
          </mxGeometry>
        </mxCell>
        <mxCell id="39lnbvpjm0g7ytKZNYeY-20" value="" style="shape=tableRow;horizontal=0;startSize=0;swimlaneHead=0;swimlaneBody=0;strokeColor=inherit;top=0;left=0;bottom=0;right=0;collapsible=0;dropTarget=0;fillColor=none;points=[[0,0.5],[1,0.5]];portConstraint=eastwest;fontSize=16;" vertex="1" parent="39lnbvpjm0g7ytKZNYeY-15">
          <mxGeometry y="89" width="130" height="22" as="geometry" />
        </mxCell>
        <mxCell id="39lnbvpjm0g7ytKZNYeY-21" value="&lt;font style=&quot;font-size: 12px;&quot;&gt;40KB&lt;/font&gt;" style="shape=partialRectangle;html=1;whiteSpace=wrap;connectable=0;strokeColor=#3700CC;overflow=hidden;fillColor=#6a00ff;top=0;left=0;bottom=0;right=0;pointerEvents=1;fontSize=16;fontColor=#000000;" vertex="1" parent="39lnbvpjm0g7ytKZNYeY-20">
          <mxGeometry width="130" height="22" as="geometry">
            <mxRectangle width="130" height="22" as="alternateBounds" />
          </mxGeometry>
        </mxCell>
        <mxCell id="39lnbvpjm0g7ytKZNYeY-47" style="shape=tableRow;horizontal=0;startSize=0;swimlaneHead=0;swimlaneBody=0;strokeColor=inherit;top=0;left=0;bottom=0;right=0;collapsible=0;dropTarget=0;fillColor=none;points=[[0,0.5],[1,0.5]];portConstraint=eastwest;fontSize=16;" vertex="1" parent="39lnbvpjm0g7ytKZNYeY-15">
          <mxGeometry y="111" width="130" height="22" as="geometry" />
        </mxCell>
        <mxCell id="39lnbvpjm0g7ytKZNYeY-48" value="20KB" style="shape=partialRectangle;html=1;whiteSpace=wrap;connectable=0;strokeColor=#B09500;overflow=hidden;fillColor=#e3c800;top=0;left=0;bottom=0;right=0;pointerEvents=1;fontSize=12;fontColor=#000000;" vertex="1" parent="39lnbvpjm0g7ytKZNYeY-47">
          <mxGeometry width="130" height="22" as="geometry">
            <mxRectangle width="130" height="22" as="alternateBounds" />
          </mxGeometry>
        </mxCell>
        <mxCell id="39lnbvpjm0g7ytKZNYeY-49" style="shape=tableRow;horizontal=0;startSize=0;swimlaneHead=0;swimlaneBody=0;strokeColor=inherit;top=0;left=0;bottom=0;right=0;collapsible=0;dropTarget=0;fillColor=none;points=[[0,0.5],[1,0.5]];portConstraint=eastwest;fontSize=16;" vertex="1" parent="39lnbvpjm0g7ytKZNYeY-15">
          <mxGeometry y="133" width="130" height="23" as="geometry" />
        </mxCell>
        <mxCell id="39lnbvpjm0g7ytKZNYeY-50" value="&lt;font color=&quot;#000000&quot;&gt;25KB&lt;/font&gt;" style="shape=partialRectangle;html=1;whiteSpace=wrap;connectable=0;strokeColor=#3700CC;overflow=hidden;fillColor=#6a00ff;top=0;left=0;bottom=0;right=0;pointerEvents=1;fontSize=12;fontColor=#ffffff;" vertex="1" parent="39lnbvpjm0g7ytKZNYeY-49">
          <mxGeometry width="130" height="23" as="geometry">
            <mxRectangle width="130" height="23" as="alternateBounds" />
          </mxGeometry>
        </mxCell>
        <mxCell id="39lnbvpjm0g7ytKZNYeY-51" style="shape=tableRow;horizontal=0;startSize=0;swimlaneHead=0;swimlaneBody=0;strokeColor=inherit;top=0;left=0;bottom=0;right=0;collapsible=0;dropTarget=0;fillColor=none;points=[[0,0.5],[1,0.5]];portConstraint=eastwest;fontSize=16;" vertex="1" parent="39lnbvpjm0g7ytKZNYeY-15">
          <mxGeometry y="156" width="130" height="22" as="geometry" />
        </mxCell>
        <mxCell id="39lnbvpjm0g7ytKZNYeY-52" value="&lt;font color=&quot;#000000&quot;&gt;30KB&lt;/font&gt;" style="shape=partialRectangle;html=1;whiteSpace=wrap;connectable=0;strokeColor=#2D7600;overflow=hidden;fillColor=#60a917;top=0;left=0;bottom=0;right=0;pointerEvents=1;fontSize=12;fontColor=#ffffff;" vertex="1" parent="39lnbvpjm0g7ytKZNYeY-51">
          <mxGeometry width="130" height="22" as="geometry">
            <mxRectangle width="130" height="22" as="alternateBounds" />
          </mxGeometry>
        </mxCell>
        <mxCell id="39lnbvpjm0g7ytKZNYeY-55" style="shape=tableRow;horizontal=0;startSize=0;swimlaneHead=0;swimlaneBody=0;strokeColor=inherit;top=0;left=0;bottom=0;right=0;collapsible=0;dropTarget=0;fillColor=none;points=[[0,0.5],[1,0.5]];portConstraint=eastwest;fontSize=16;" vertex="1" parent="39lnbvpjm0g7ytKZNYeY-15">
          <mxGeometry y="178" width="130" height="22" as="geometry" />
        </mxCell>
        <mxCell id="39lnbvpjm0g7ytKZNYeY-56" value="&lt;font color=&quot;#000000&quot;&gt;10KB&lt;/font&gt;" style="shape=partialRectangle;html=1;whiteSpace=wrap;connectable=0;strokeColor=#3700CC;overflow=hidden;fillColor=#6a00ff;top=0;left=0;bottom=0;right=0;pointerEvents=1;fontSize=12;fontColor=#ffffff;" vertex="1" parent="39lnbvpjm0g7ytKZNYeY-55">
          <mxGeometry width="130" height="22" as="geometry">
            <mxRectangle width="130" height="22" as="alternateBounds" />
          </mxGeometry>
        </mxCell>
        <mxCell id="39lnbvpjm0g7ytKZNYeY-40" value="" style="endArrow=classic;html=1;rounded=0;exitX=0.55;exitY=0.95;exitDx=0;exitDy=0;exitPerimeter=0;entryX=-0.017;entryY=0.433;entryDx=0;entryDy=0;entryPerimeter=0;" edge="1" parent="1" source="39lnbvpjm0g7ytKZNYeY-1" target="39lnbvpjm0g7ytKZNYeY-24">
          <mxGeometry width="50" height="50" relative="1" as="geometry">
            <mxPoint x="160" y="510" as="sourcePoint" />
            <mxPoint x="66" y="491" as="targetPoint" />
            <Array as="points">
              <mxPoint x="66" y="647" />
            </Array>
          </mxGeometry>
        </mxCell>
        <mxCell id="39lnbvpjm0g7ytKZNYeY-42" value="" style="endArrow=classic;html=1;rounded=0;exitX=0.55;exitY=0.95;exitDx=0;exitDy=0;exitPerimeter=0;entryX=0;entryY=0.5;entryDx=0;entryDy=0;" edge="1" parent="1" source="39lnbvpjm0g7ytKZNYeY-1" target="39lnbvpjm0g7ytKZNYeY-20">
          <mxGeometry width="50" height="50" relative="1" as="geometry">
            <mxPoint x="240" y="500" as="sourcePoint" />
            <mxPoint x="290" y="450" as="targetPoint" />
            <Array as="points">
              <mxPoint x="66" y="470" />
            </Array>
          </mxGeometry>
        </mxCell>
      </root>
    </mxGraphModel>
  </diagram>
</mxfile>
